<?xml version="1.0" encoding="utf-8"?>
<!-- Generator: Adobe Illustrator 26.3.1, SVG Export Plug-In . SVG Version: 6.00 Build 0)  -->
<svg version="1.1" id="Layer_1" xmlns="http://www.w3.org/2000/svg" xmlns:xlink="http://www.w3.org/1999/xlink" x="0px" y="0px"
	 viewBox="0 0 89.4 112.4" style="enable-background:new 0 0 89.4 112.4;" xml:space="preserve">
<style type="text/css">
	.st0{fill-rule:evenodd;clip-rule:evenodd;}
</style>
<path class="st0" d="M69.6,4.5l-3.8-3.8c-0.3-0.3-0.7-0.5-1.2-0.5H2.1c-0.9,0-1.7,0.7-1.7,1.7V87c0,0.5,0.2,0.9,0.5,1.2l5.4,5.4
	c0,0,0.1,0.1,0.1,0.1l0,0l18.8,17.6c0.4,0.4,1,0.6,1.6,0.6H87c1.2,0,2.2-1,2.2-2.2l-0.1-86c0-0.6-0.2-1.1-0.6-1.6L69.7,4.6
	C69.6,4.6,69.6,4.5,69.6,4.5L69.6,4.5z M65.9,9H10.9c-0.9,0-1.7,0.7-1.7,1.7v79.3h54.5c1.2,0,2.2-1,2.2-2.2V9z M-0.4-1.9"/>
</svg>
